<?xml version="1.0" encoding="UTF-8"?>
<svg width="35px" height="35px" viewBox="0 0 35 35" version="1.1" xmlns="http://www.w3.org/2000/svg" xmlns:xlink="http://www.w3.org/1999/xlink">
    <!-- Generator: Sketch 43.1 (39012) - http://www.bohemiancoding.com/sketch -->
    <title>Page 1</title>
    <desc>Created with Sketch.</desc>
    <defs></defs>
    <g id="Page-1" stroke="none" stroke-width="1" fill="none" fill-rule="evenodd">
        <g id="iPad-Pro-Landscape-Copy-15" transform="translate(-448.000000, -704.000000)" fill="#FFFFFF">
            <g id="Group-4" transform="translate(145.000000, 183.000000)">
                <g id="Page-1" transform="translate(303.000000, 521.000000)">
                    <path d="M23.5310185,15.8796296 L19.1205648,15.8796296 L19.1205648,11.4691759 C19.1205648,10.5729167 18.3964537,9.84880556 17.5001944,9.84880556 C16.6039352,9.84880556 15.8798241,10.5729167 15.8798241,11.4691759 L15.8798241,15.8796296 L11.4693704,15.8796296 C10.5731111,15.8796296 9.849,16.6037407 9.849,17.5 C9.849,18.3962593 10.5731111,19.1203704 11.4693704,19.1203704 L15.8798241,19.1203704 L15.8798241,23.5308241 C15.8798241,24.4270833 16.6039352,25.1511944 17.5001944,25.1511944 C18.3964537,25.1511944 19.1205648,24.4270833 19.1205648,23.5308241 L19.1205648,19.1203704 L23.5310185,19.1203704 C24.4272778,19.1203704 25.1513889,18.3962593 25.1513889,17.5 C25.1513889,16.6037407 24.4272778,15.8796296 23.5310185,15.8796296 Z" id="Fill-1"></path>
                    <path d="M17.5,0 C7.85101852,0 0,7.85101852 0,17.5 C0,27.1489815 7.85101852,35 17.5,35 C27.1489815,35 35,27.1489815 35,17.5 C35,7.85101852 27.1489815,0 17.5,0 Z M17.5,32.4074074 C9.27888889,32.4074074 2.59259259,25.7211111 2.59259259,17.5 C2.59259259,9.27888889 9.27888889,2.59259259 17.5,2.59259259 C25.7211111,2.59259259 32.4074074,9.27888889 32.4074074,17.5 C32.4074074,25.7211111 25.7211111,32.4074074 17.5,32.4074074 Z" id="Fill-2"></path>
                </g>
            </g>
        </g>
    </g>
</svg>