<?xml version="1.0" encoding="UTF-8"?>
<svg width="24px" height="24px" viewBox="0 0 24 24" version="1.1" xmlns="http://www.w3.org/2000/svg" xmlns:xlink="http://www.w3.org/1999/xlink">
    <!-- Generator: Sketch 43.1 (39012) - http://www.bohemiancoding.com/sketch -->
    <title>Page 1</title>
    <desc>Created with Sketch.</desc>
    <defs></defs>
    <g id="Symbols" stroke="none" stroke-width="1" fill="none" fill-rule="evenodd">
        <g id="Booking-Pickup-Dropoff-2" transform="translate(-68.000000, -349.000000)" fill="#FFFFFF">
            <g id="Group">
                <path d="M95.1144965,360.572402 C95.1144965,360.515875 95.0578375,360.404994 95.0578375,360.350638 C95.0011785,360.294112 95.0011785,360.239756 94.9466952,360.128874 C94.8900362,360.072348 94.8900362,360.017992 94.835553,359.961466 C94.778894,359.850584 94.6677517,359.739702 94.5566095,359.62665 L94.5566095,359.570123 L81.7821128,346.881767 C80.888601,345.990349 79.4938835,345.990349 78.6026032,346.881767 C77.7090913,347.773186 77.7090913,349.164636 78.6026032,350.053829 L80.1651331,351.612698 L87.6397032,358.958998 L67.4447515,358.958998 C66.2178464,358.958998 65.2132034,359.961288 65.2132034,361.185319 C65.2132034,362.40935 66.2178464,363.411639 67.4447515,363.411639 L87.6397032,363.411639 L78.6566066,372.373691 C77.7630948,373.26511 77.7630948,374.65656 78.6566066,375.545753 C79.1033514,375.991451 79.6612496,376.213203 80.2191366,376.213203 C80.7770236,376.213203 81.3349106,375.99144 81.7816665,375.545753 L94.5561632,362.744411 L94.5561632,362.687885 C94.6673054,362.577003 94.7239644,362.466121 94.8351067,362.353068 C94.8917657,362.296542 94.8917657,362.242186 94.9462489,362.18566 C95.0029079,362.129134 95.0029079,362.074778 95.0573912,361.963896 C95.1140502,361.90737 95.1140502,361.796488 95.1140502,361.742133 C95.1140502,361.685606 95.1707092,361.631251 95.1707092,361.574724 C95.2273682,361.296434 95.2273682,360.961596 95.1707092,360.683306 C95.1707092,360.685476 95.1707092,360.62895 95.1140502,360.572424 L95.1144965,360.572402 Z" id="Page-1" transform="translate(80.213203, 361.213203) rotate(-45.000000) translate(-80.213203, -361.213203) "></path>
            </g>
        </g>
    </g>
</svg>