<?xml version="1.0" encoding="UTF-8"?>
<svg width="30px" height="30px" viewBox="0 0 30 30" version="1.1" xmlns="http://www.w3.org/2000/svg" xmlns:xlink="http://www.w3.org/1999/xlink">
    <!-- Generator: Sketch 43.1 (39012) - http://www.bohemiancoding.com/sketch -->
    <title>Page 1</title>
    <desc>Created with Sketch.</desc>
    <defs></defs>
    <g id="Symbols" stroke="none" stroke-width="1" fill="none" fill-rule="evenodd">
        <g id="Booking-Passengers" transform="translate(-66.000000, -149.000000)" fill="#FFFFFF">
            <g id="Group">
                <path d="M81,149 C72.7357143,149 66,155.735714 66,164 C66,172.264286 72.7357143,179 81,179 C89.2642857,179 96,172.264286 96,164 C96,155.735714 89.2642857,149 81,149 Z M81,152 C87.648,152 93,157.352 93,164 C93,170.648 87.648,176 81,176 C74.352,176 69,170.648 69,164 C69,157.352 74.352,152 81,152 Z M81.4698785,154.4 C80.5481056,154.4 79.8,155.133163 79.8,156.036524 L79.8,164.219141 C79.8,164.824291 80.1362022,165.350161 80.6349392,165.633825 L86.8966124,169.179626 C87.6944432,169.631306 88.7149245,169.367281 89.175811,168.583204 C89.6366974,167.802037 89.3643217,166.801939 88.5664909,166.350258 L83.1397569,163.281595 L83.1397569,156.036524 C83.1397569,155.133163 82.3916514,154.4 81.4698785,154.4 Z" id="Page-1"></path>
            </g>
        </g>
    </g>
</svg>