<?xml version="1.0" encoding="UTF-8"?>
<svg width="28px" height="31px" viewBox="0 0 28 31" version="1.1" xmlns="http://www.w3.org/2000/svg" xmlns:xlink="http://www.w3.org/1999/xlink">
    <!-- Generator: Sketch 43.1 (39012) - http://www.bohemiancoding.com/sketch -->
    <title>Page 1</title>
    <desc>Created with Sketch.</desc>
    <defs></defs>
    <g id="Symbols" stroke="none" stroke-width="1" fill="none" fill-rule="evenodd">
        <g id="Booking-Passengers" transform="translate(-67.000000, -50.000000)" fill="#FFFFFF">
            <g id="Group">
                <path d="M68.5657778,54.8216238 C68.5657778,53.2459808 69.8662222,51.9682315 71.4671111,52.0006018 L93.1008889,52.0006018 C94.6995556,52.0006018 96,53.2787885 96,54.853994 L96,76.1466078 C96,77.720501 94.7013333,79 93.1008889,79 L71.4671111,79 C69.868,79 68.5675556,77.7222507 68.5675556,76.1466078 L68.5675556,73.3255858 L66.9671111,73.3255858 C66.4342222,73.3255858 66,72.8982112 66,72.373726 C66,71.8492407 66.4342222,71.4218662 66.9671111,71.4236159 L68.5675556,71.4236159 L68.5675556,59.6128556 L66.9671111,59.6128556 C66.4342222,59.6128556 66,59.1859184 66,58.6609958 C66,58.1365105 66.4342222,57.7095734 66.9671111,57.7095734 L68.5657778,57.7095734 L68.5657778,54.8216238 Z M77.8662222,66.239567 L77.8662222,70.7980831 L82.1995556,70.7980831 L82.1995556,66.239567 L77.8662222,66.239567 Z M77.8662222,60.0708506 L77.8662222,64.7286645 L82.1995556,64.7286645 L82.1995556,60.0708506 L77.8662222,60.0708506 Z M77.8662222,53.869764 L77.8662222,58.5621353 L82.1995556,58.5621353 L82.1995556,53.869764 L77.8662222,53.869764 Z M82.1995556,72.3413558 L77.8662222,72.3413558 L77.8662222,77.0984676 L82.1995556,77.0984676 L82.1995556,72.3413558 Z M83.7324444,77.0984676 L88.4324444,77.0984676 L88.4324444,72.3413558 L83.7324444,72.3413558 L83.7324444,77.0984676 Z M83.7324444,70.7980831 L88.4324444,70.7980831 L88.4324444,66.2378173 L83.7324444,66.2378173 L83.7324444,70.7980831 Z M90,66.239567 L90,70.7980831 L94.0657778,70.7980831 L94.0657778,66.239567 L90,66.239567 Z M90,64.7286645 L94.0657778,64.7286645 L94.0657778,60.1032208 L90,60.1032208 L90,64.7286645 Z M88.4671111,64.7286645 L88.4324444,64.7286645 L88.4324444,60.1032208 L83.7324444,60.1032208 L83.7324444,64.7286645 L88.4671111,64.7286645 Z M83.7324444,58.5621353 L88.4324444,58.5621353 L88.4324444,53.869764 L83.7324444,53.869764 L83.7324444,58.5621353 Z M70.5,76.1466078 C70.5,76.671093 70.9342222,77.0984676 71.4671111,77.0984676 L75.9671111,77.0984676 L75.9671111,53.8680142 L71.4671111,53.8680142 C70.9342222,53.8680142 70.5,54.2953888 70.5,54.819874 L70.5,57.7078236 L72.5328889,57.7078236 C73.0657778,57.7078236 73.5,58.1347608 73.5,58.659246 C73.5,59.1841687 73.0657778,59.6111058 72.5328889,59.6111058 L70.5,59.6111058 L70.5,71.4218662 L72.5328889,71.4218662 C73.0657778,71.4218662 73.5,71.8492407 73.5,72.373726 C73.5,72.8982112 73.0657778,73.3255858 72.5328889,73.3255858 L70.5,73.3255858 L70.5,76.1466078 Z M93.1008889,77.0984676 C93.6337778,77.0984676 94.0657778,76.671093 94.0657778,76.1466078 L94.0657778,72.3413558 L90,72.3413558 L90,77.0984676 L93.1008889,77.0984676 Z M94.0657778,54.8216238 C94.0657778,54.2971385 93.6337778,53.869764 93.1008889,53.869764 L90,53.869764 L90,58.5621353 L94.0657778,58.5621353 L94.0657778,54.8216238 Z" id="Page-1" transform="translate(81.000000, 65.500000) rotate(-270.000000) translate(-81.000000, -65.500000) "></path>
            </g>
        </g>
    </g>
</svg>