<?xml version="1.0" encoding="UTF-8"?>
<svg width="30px" height="26px" viewBox="0 0 30 26" version="1.1" xmlns="http://www.w3.org/2000/svg" xmlns:xlink="http://www.w3.org/1999/xlink">
    <!-- Generator: Sketch 43.1 (39012) - http://www.bohemiancoding.com/sketch -->
    <title>Page 1</title>
    <desc>Created with Sketch.</desc>
    <defs></defs>
    <g id="Symbols" stroke="none" stroke-width="1" fill="none" fill-rule="evenodd">
        <g id="Booking-Pickup-Dropoff" transform="translate(-66.000000, -249.000000)" fill="#FFFFFF">
            <g id="Group">
                <path d="M94,257.666667 C94,260.600889 91.6008889,263 88.6666667,263 C85.7324444,263 83.3333333,260.600889 83.3333333,257.666667 C83.3333333,254.732444 85.7324444,252.333333 88.6666667,252.333333 C91.6008889,252.333333 94,254.732444 94,257.666667 Z M93.3333333,269 C93.3333333,271.381778 91.3817778,273.333333 89,273.333333 C86.6182222,273.333333 84.6666667,271.381778 84.6666667,269 C84.6666667,266.618222 86.6182222,264.666667 89,264.666667 C91.3817778,264.666667 93.3333333,266.618222 93.3333333,269 Z M92,257.666667 C92,255.814222 90.5191111,254.333333 88.6666667,254.333333 C86.8142222,254.333333 85.3333333,255.814222 85.3333333,257.666667 C85.3333333,259.519111 86.8142222,261 88.6666667,261 C90.5191111,261 92,259.519111 92,257.666667 Z M91.3333333,269 C91.3333333,267.699556 90.3004444,266.666667 89,266.666667 C87.6995556,266.666667 86.6666667,267.699556 86.6666667,269 C86.6666667,270.300444 87.6995556,271.333333 89,271.333333 C90.3004444,271.333333 91.3333333,270.300444 91.3333333,269 Z M84,269 C84,271.084889 83.5626667,272.988 82.7395556,274.448 C81.9164444,275.908 80.6022222,277 79,277 L74,277 C73.4755556,277 73,276.524444 73,276 L73,268.333333 L69,268.333333 C68.4755556,268.333333 68,267.857778 68,267.333333 L68,248 C68,247.475556 68.4755556,247 69,247 L75.6666667,247 C77.6875556,247 79.3924444,248.383556 80.5311111,250.323111 C81.6702222,252.262222 82.3333333,254.829778 82.3333333,257.666667 C82.3333333,259.288 82.1182222,260.819556 81.7186667,262.197778 C83.2395556,263.672 84,266.184 84,269 Z M82,269 C82,267.102222 81.5173333,265.448 80.8751111,264.375111 C80.7657778,264.592 80.6511111,264.807111 80.5311111,265.010222 C79.3924444,266.949778 77.8817778,268.465333 75,268.333333 L75,275 L79,275 C79.696,275 80.3871111,274.528 80.9897778,273.458222 C81.592,272.388889 82,270.793333 82,269 Z M80.3333333,257.666667 C80.3333333,255.147556 79.7275556,252.888889 78.8124444,251.333333 C77.8977778,249.777778 76.7657778,249 75.6666667,249 L70,249 L70,266.333333 L75.6666667,266.333333 C76.7657778,266.333333 77.8977778,265.555556 78.8124444,264 C79.7275556,262.444444 80.3333333,260.185778 80.3333333,257.666667 Z" id="Page-1" transform="translate(81.000000, 262.000000) rotate(-90.000000) translate(-81.000000, -262.000000) "></path>
            </g>
        </g>
    </g>
</svg>