<?xml version="1.0" encoding="UTF-8"?>
<svg width="46px" height="42px" viewBox="0 0 46 42" version="1.1" xmlns="http://www.w3.org/2000/svg" xmlns:xlink="http://www.w3.org/1999/xlink">
    <!-- Generator: Sketch 42 (36781) - http://www.bohemiancoding.com/sketch -->
    <title>Page 1</title>
    <desc>Created with Sketch.</desc>
    <defs></defs>
    <g id="Symbols" stroke="none" stroke-width="1" fill="none" fill-rule="evenodd">
        <g id="HeaderHotelBorg2CartItems" transform="translate(-1264.000000, -34.000000)" fill="#555555">
            <g id="Header">
                <path d="M1307.49998,33.0457101 L1307.49998,39.319971 C1307.50279,39.7940262 1307.14395,40.245773 1306.67858,40.3489497 L1302.24358,41.2803289 L1302.24358,76.965536 C1302.23797,77.5859906 1301.57286,78.1144228 1300.96241,77.9784805 L1285.19319,74.318495 C1284.73343,74.2146211 1284.37739,73.7740286 1284.37179,73.3055505 L1284.37179,45.0386111 L1280.16666,45.9211905 L1280.16666,71.2141302 C1280.17507,71.7641737 1279.67116,72.273086 1279.11538,72.273086 C1278.5596,72.273086 1278.05569,71.7669623 1278.0641,71.2141302 L1278.0641,45.0713767 C1278.03396,44.4746248 1278.61427,43.9190042 1279.2142,43.9768668 L1305.39742,38.4701572 L1305.39742,33.0457101 C1305.39742,32.4684781 1305.86839,32 1306.4487,32 C1307.02901,32 1307.49998,32.4684781 1307.49998,33.0457101 Z M1300.14101,41.7216186 L1286.47435,44.5973215 L1286.47435,72.4717709 L1300.14101,75.6583983 L1300.14101,41.7216186 Z M1275.96153,50.2999274 C1275.96153,52.8870143 1273.83164,55.005623 1271.23077,55.005623 C1268.6299,55.005623 1266.5,52.8870143 1266.5,50.2999274 C1266.5,47.7128405 1268.6299,45.5942318 1271.23077,45.5942318 C1273.83164,45.5942318 1275.96153,47.7128405 1275.96153,50.2999274 Z M1275.96153,65.9855795 C1275.96153,68.5726664 1273.83164,70.6912751 1271.23077,70.6912751 C1268.6299,70.6912751 1266.5,68.5726664 1266.5,65.9855795 C1266.5,63.3984926 1268.6299,61.2798839 1271.23077,61.2798839 C1273.83164,61.2798839 1275.96153,63.3984926 1275.96153,65.9855795 Z M1273.85897,50.2999274 C1273.85897,48.8429046 1272.69555,47.6856521 1271.23077,47.6856521 C1269.76598,47.6856521 1268.60256,48.8429046 1268.60256,50.2999274 C1268.60256,51.7569502 1269.76598,52.9142028 1271.23077,52.9142028 C1272.69555,52.9142028 1273.85897,51.7569502 1273.85897,50.2999274 Z M1273.85897,65.9855795 C1273.85897,64.5285567 1272.69555,63.3713042 1271.23077,63.3713042 C1269.76598,63.3713042 1268.60256,64.5285567 1268.60256,65.9855795 C1268.60256,67.4426023 1269.76598,68.5998548 1271.23077,68.5998548 C1272.69555,68.5998548 1273.85897,67.4426023 1273.85897,65.9855795 Z" id="Page-1" transform="translate(1287.000000, 55.000000) rotate(-90.000000) translate(-1287.000000, -55.000000) "></path>
            </g>
        </g>
    </g>
</svg>