<?xml version="1.0" encoding="UTF-8"?>
<svg width="69px" height="60px" viewBox="0 0 69 60" version="1.1" xmlns="http://www.w3.org/2000/svg" xmlns:xlink="http://www.w3.org/1999/xlink">
    <!-- Generator: Sketch 43.1 (39012) - http://www.bohemiancoding.com/sketch -->
    <title>MapIcon</title>
    <desc>Created with Sketch.</desc>
    <defs></defs>
    <g id="Symbols" stroke="none" stroke-width="1" fill="none" fill-rule="evenodd">
        <g id="LeftNav" transform="translate(-21.000000, -245.000000)" fill="#FFFFFF">
            <g id="Group-2">
                <path d="M84.2254433,285.708242 C84.2254433,289.916176 81.86635,293.588296 78.39019,295.559256 L81.2964567,306.475269 C81.6372567,307.736229 80.5381767,309.167589 79.2327233,309.160016 L33.7927233,309.160016 C32.8687767,309.152442 31.9921633,308.475576 31.75171,307.584762 L26.07171,286.284762 C25.9760967,285.922189 25.9760967,285.537842 26.07171,285.175269 L31.5964567,264.430016 L26.07171,243.684762 C25.7356433,242.431376 26.8148433,241.007589 28.1127233,241.000016 L73.5527233,241.000016 C74.48519,240.996229 75.3722167,241.676882 75.6164567,242.575269 L81.2964567,263.875269 C81.3598833,264.189562 81.4337233,264.515216 81.2964567,264.984762 L78.39019,275.900776 C81.8587767,277.861322 84.2254433,281.506936 84.2254433,285.708242 Z M79.9654433,285.708242 C79.9654433,281.795669 76.7335233,278.630016 72.57671,278.630016 C71.7852967,278.630016 70.4022167,278.911176 69.5814567,279.206536 L55.8472167,285.730016 L69.5814567,292.253496 C70.39559,292.548856 71.78151,292.830016 72.57671,292.830016 C76.72595,292.830016 79.9654433,289.619869 79.9654433,285.708242 Z M77.8354433,285.730016 C77.8354433,288.447896 75.5833233,290.700016 72.8654433,290.700016 C70.1475633,290.700016 67.8954433,288.447896 67.8954433,285.730016 C67.8954433,283.012136 70.1475633,280.760016 72.8654433,280.760016 C75.5833233,280.760016 77.8354433,283.012136 77.8354433,285.730016 Z M76.48171,304.900016 L74.35171,296.934762 C73.7676167,297.023749 73.1835233,297.090016 72.57671,297.090016 C70.9683233,297.090016 69.3523633,296.719869 68.0289233,296.224762 C62.1747367,293.414109 56.2429233,290.663096 50.3669633,287.860016 L30.9091767,287.860016 L35.43519,304.900016 L76.48171,304.900016 Z M76.4599367,262.300016 L71.9339233,245.260016 L30.8864567,245.260016 L35.43519,262.300016 L76.4599367,262.300016 Z M76.4599367,266.560016 L35.43519,266.560016 L30.9091767,283.600016 L50.3669633,283.600016 C56.2504967,280.815869 62.15959,278.023202 68.0289233,275.235269 C69.34479,274.743949 70.9645367,274.370016 72.57671,274.370016 C73.1835233,274.370016 73.7714033,274.436282 74.35171,274.525269 L76.4599367,266.560016 Z M73.5754433,285.730016 C73.5754433,285.312536 73.2829233,285.020016 72.8654433,285.020016 C72.4470167,285.020016 72.1554433,285.312536 72.1554433,285.730016 C72.1554433,286.147496 72.4470167,286.440016 72.8654433,286.440016 C73.2829233,286.440016 73.5754433,286.147496 73.5754433,285.730016 Z" id="MapIcon" transform="translate(55.112722, 275.080023) rotate(-90.000000) translate(-55.112722, -275.080023) "></path>
            </g>
        </g>
    </g>
</svg>