<?xml version="1.0" encoding="UTF-8"?>
<svg width="70px" height="49px" viewBox="0 0 70 49" version="1.1" xmlns="http://www.w3.org/2000/svg" xmlns:xlink="http://www.w3.org/1999/xlink">
    <!-- Generator: Sketch 43.1 (39012) - http://www.bohemiancoding.com/sketch -->
    <title>PhotosIcon</title>
    <desc>Created with Sketch.</desc>
    <defs></defs>
    <g id="Symbols" stroke="none" stroke-width="1" fill="none" fill-rule="evenodd">
        <g id="LeftNav" transform="translate(-20.000000, -21.000000)" fill="#FFFFFF">
            <g id="Group-2">
                <path d="M79,16.25 L79,74.75 C79,77.621 76.621,80 73.75,80 L36.25,80 C33.379,80 31,77.621 31,74.75 L31,16.25 C31,13.379 33.379,11 36.25,11 L73.75,11 C76.621,11 79,13.379 79,16.25 Z M74.5,16.25 C74.5,15.797 74.203,15.5 73.75,15.5 L45.719,15.5 L63.297,31.859 C63.707,32.246 63.965,32.797 64,33.359 C64.043,34.039 63.758,34.734 63.25,35.188 L46.492,50.188 L57.297,60.359 C57.703,60.742 57.961,61.281 58,61.836 C58.051,62.512 57.773,63.207 57.273,63.664 L44.312,75.5 L73.75,75.5 C74.203,75.5 74.5,75.203 74.5,74.75 L74.5,16.25 Z M73,50.75 C73,54.453 69.953,57.5 66.25,57.5 C62.547,57.5 59.5,54.453 59.5,50.75 C59.5,47.047 62.547,44 66.25,44 C69.953,44 73,47.047 73,50.75 Z M68.5,50.75 C68.5,49.48 67.52,48.5 66.25,48.5 C64.98,48.5 64,49.48 64,50.75 C64,52.02 64.98,53 66.25,53 C67.52,53 68.5,52.02 68.5,50.75 Z M58.422,33.453 L39.133,15.5 L36.25,15.5 C35.797,15.5 35.5,15.797 35.5,16.25 L35.5,53.961 L58.422,33.453 Z M52.445,61.977 L43.117,53.188 L35.5,60.008 L35.5,74.75 C35.5,75.203 35.797,75.5 36.25,75.5 L37.633,75.5 L52.445,61.977 Z" id="PhotosIcon" transform="translate(55.000000, 45.500000) rotate(-90.000000) translate(-55.000000, -45.500000) "></path>
            </g>
        </g>
    </g>
</svg>