<?xml version="1.0" encoding="UTF-8"?>
<svg width="45px" height="45px" viewBox="0 0 45 45" version="1.1" xmlns="http://www.w3.org/2000/svg" xmlns:xlink="http://www.w3.org/1999/xlink">
    <!-- Generator: Sketch 43.1 (39012) - http://www.bohemiancoding.com/sketch -->
    <title>Page 1</title>
    <desc>Created with Sketch.</desc>
    <defs></defs>
    <g id="Page-1" stroke="none" stroke-width="1" fill="none" fill-rule="evenodd">
        <g id="iPad-Pro-Landscape-Copy-10" transform="translate(-951.000000, -1043.000000)" fill="#E38F13">
            <g id="Group-2" transform="translate(0.000000, 110.000000)">
                <g id="Group" transform="translate(0.000000, 788.000000)">
                    <path d="M973.5,145 C961.103571,145 951,155.103571 951,167.5 C951,179.896429 961.103571,190 973.5,190 C985.896429,190 996,179.896429 996,167.5 C996,155.103571 985.896429,145 973.5,145 Z M973.5,149.5 C983.472,149.5 991.5,157.528 991.5,167.5 C991.5,177.472 983.472,185.5 973.5,185.5 C963.528,185.5 955.5,177.472 955.5,167.5 C955.5,157.528 963.528,149.5 973.5,149.5 Z M974.204818,153.1 C972.822158,153.1 971.7,154.199744 971.7,155.554785 L971.7,167.828712 C971.7,168.736437 972.204303,169.525241 972.952409,169.950737 L982.344919,175.269439 C983.541665,175.94696 985.072387,175.550921 985.763716,174.374806 C986.455046,173.203055 986.046483,171.702908 984.849736,171.025388 L976.709635,166.422393 L976.709635,155.554785 C976.709635,154.199744 975.587477,153.1 974.204818,153.1 Z" id="Page-1"></path>
                </g>
            </g>
        </g>
    </g>
</svg>