<?xml version="1.0" encoding="UTF-8"?>
<svg width="67px" height="40px" viewBox="0 0 67 40" version="1.1" xmlns="http://www.w3.org/2000/svg" xmlns:xlink="http://www.w3.org/1999/xlink">
    <!-- Generator: Sketch 43.1 (39012) - http://www.bohemiancoding.com/sketch -->
    <title>Page 1</title>
    <desc>Created with Sketch.</desc>
    <defs></defs>
    <g id="Page-1" stroke="none" stroke-width="1" fill="none" fill-rule="evenodd">
        <g id="iPad-Pro-Landscape-Copy-10" transform="translate(-1078.000000, -1048.000000)" fill="#E38F13">
            <g id="Group-2" transform="translate(0.000000, 110.000000)">
                <g id="Group" transform="translate(0.000000, 788.000000)">
                    <g id="Page-1" transform="translate(1078.000000, 150.000000)">
                        <path d="M45.3822267,8.632 C45.0677733,8.00711111 44.4254667,7.61777778 43.73492,7.61777778 L9.49881333,7.61777778 C8.47952,7.61777778 7.65229333,8.43733333 7.65229333,9.45511111 L7.65229333,19.8195556 C7.65229333,20.8337778 8.47594667,21.656 9.49881333,21.656 L48.8894533,21.656 C49.5308667,21.656 50.1177867,21.3297778 50.45904,20.7848889 C50.8011867,20.2497778 50.8262,19.5733333 50.55016,19 L45.3822267,8.632 Z M31.8911067,11.2782222 L31.8911067,17.9724444 L22.7978667,17.9724444 L22.7978667,11.2782222 L31.8911067,11.2782222 Z M11.34444,11.2782222 L19.10572,11.2782222 L19.10572,17.9724444 L11.34444,17.9724444 L11.34444,11.2782222 Z M35.57968,17.9688889 L35.57968,11.2782222 L42.57984,11.2782222 L45.9155467,17.9724444 L35.57968,17.9724444 L35.57968,17.9688889 Z" id="Fill-1"></path>
                        <path d="M59.1869067,13.816 L56.2031733,13.816 L49.96056,1.27822222 C49.6461067,0.652444444 49.0038,0.264 48.3132533,0.264 L2.11809333,0.264 C1.0988,0.264 0.272466667,1.08355556 0.272466667,2.10044444 L0.272466667,32.2328889 C0.272466667,33.2462222 1.09612,34.0693333 2.11809333,34.0693333 L6.01928,34.0693333 C6.84293333,37.3262222 9.81594667,39.7466667 13.3338933,39.7466667 C16.86524,39.7466667 19.82396,37.3226667 20.6476133,34.0693333 L46.3729333,34.0693333 C47.1965867,37.3262222 50.1696,39.7466667 53.6875467,39.7466667 C57.2188933,39.7466667 60.1776133,37.3226667 61.0012667,34.0693333 L64.9024533,34.0693333 C65.9217467,34.0693333 66.7489733,33.2497778 66.7489733,32.2328889 L66.7489733,21.3333333 C66.7382533,17.1875556 63.34984,13.816 59.1869067,13.816 Z M13.3231733,36.0693333 C11.1907867,36.0693333 9.46397333,34.3511111 9.46397333,32.2293333 C9.46397333,30.1075556 11.1907867,28.3893333 13.3231733,28.3893333 C15.45556,28.3893333 17.1823733,30.1075556 17.1823733,32.2293333 C17.1823733,34.3475556 15.4412667,36.0693333 13.3231733,36.0693333 Z M53.6768267,36.0693333 C51.54444,36.0693333 49.8176267,34.3511111 49.8176267,32.2293333 C49.8176267,30.1075556 51.54444,28.3893333 53.6768267,28.3893333 C55.8092133,28.3893333 57.5360267,30.1075556 57.5360267,32.2293333 C57.5396,34.3475556 55.8127867,36.0693333 53.6768267,36.0693333 Z M63.04968,30.3893333 L60.99412,30.3893333 C60.1704667,27.1315556 57.1974533,24.712 53.6804,24.712 C50.1490533,24.712 47.18944,27.1351111 46.3657867,30.3893333 L20.6377867,30.3893333 C19.8141333,27.1315556 16.84112,24.712 13.3231733,24.712 C9.79182667,24.712 6.83221333,27.1351111 6.00945333,30.3893333 L3.95032,30.3893333 L3.95032,3.93066667 L47.1581733,3.93066667 L53.4007867,16.4684444 C53.71524,17.0933333 54.3575467,17.4826667 55.0480933,17.4826667 L59.16904,17.4826667 C61.3014267,17.4826667 63.0291333,19.2017778 63.0291333,21.3226667 L63.0291333,30.3893333 L63.04968,30.3893333 Z" id="Fill-2"></path>
                    </g>
                </g>
            </g>
        </g>
    </g>
</svg>