<?xml version="1.0" encoding="UTF-8"?>
<svg width="70px" height="53px" viewBox="0 0 70 53" version="1.1" xmlns="http://www.w3.org/2000/svg" xmlns:xlink="http://www.w3.org/1999/xlink">
    <!-- Generator: Sketch 43.1 (39012) - http://www.bohemiancoding.com/sketch -->
    <title>VideoIcon</title>
    <desc>Created with Sketch.</desc>
    <defs></defs>
    <g id="Symbols" stroke="none" stroke-width="1" fill="none" fill-rule="evenodd">
        <g id="LeftNav" transform="translate(-20.000000, -134.000000)" fill="#FFFFFF">
            <g id="Group-2">
                <path d="M80.48,134.58 L80.48,186.06 C80.48,190.77224 76.61224,194.64 71.9,194.64 L37.58,194.64 C32.86776,194.64 29,190.77224 29,186.06 L29,134.58 C29,129.86776 32.86776,126 37.58,126 L71.9,126 C76.61224,126 80.48,129.86776 80.48,134.58 Z M75.8,134.58 C75.8,132.37832 74.10168,130.68 71.9,130.68 L37.58,130.68 C35.37832,130.68 33.68,132.37832 33.68,134.58 L33.68,186.06 C33.68,188.26168 35.37832,189.96 37.58,189.96 L71.9,189.96 C74.10168,189.96 75.8,188.26168 75.8,186.06 L75.8,134.58 Z M68.12168,154.88392 C68.11752,155.25832 68.00832,155.63168 67.80448,155.9572 L56.88448,173.14112 C56.45808,173.8192 55.6136,174.26224 54.75248,174.26224 C53.89136,174.26224 53.04584,173.8192 52.61944,173.14112 L41.69944,155.9572 C41.29696,155.31864 41.28136,154.49392 41.65056,153.8408 C42.0208,153.18664 42.77168,152.71864 43.57664,152.64168 C43.65776,152.63752 43.73888,152.63752 43.82,152.64168 L65.66,152.64168 C66.95168,152.63752 68.13,153.7108 68.12168,154.88392 Z M61.41888,157.10224 L48.08608,157.10224 L54.74,167.55944 L61.41888,157.10224 Z" id="VideoIcon" transform="translate(54.740000, 160.320000) rotate(-90.000000) translate(-54.740000, -160.320000) "></path>
            </g>
        </g>
    </g>
</svg>