<?xml version="1.0" encoding="UTF-8"?>
<svg width="40px" height="40px" viewBox="0 0 40 40" version="1.1" xmlns="http://www.w3.org/2000/svg" xmlns:xlink="http://www.w3.org/1999/xlink">
    <!-- Generator: Sketch 43.1 (39012) - http://www.bohemiancoding.com/sketch -->
    <title>Group 3</title>
    <desc>Created with Sketch.</desc>
    <defs></defs>
    <g id="Symbols" stroke="none" stroke-width="1" fill="none" fill-rule="evenodd">
        <g id="Booking-Passengers" transform="translate(-403.000000, -308.000000)">
            <g id="Group">
                <g id="Group-3" transform="translate(403.000000, 308.000000)">
                    <ellipse id="Oval-2-Copy-11" stroke="#7EA4AE" stroke-width="2.28571429" cx="20" cy="20" rx="18.8571429" ry="18.8571429"></ellipse>
                    <path d="M28,20 C28,19.5431724 27.6292414,19.1724138 27.1724138,19.1724138 L20.8275862,19.1724138 L20.8275862,12.8275862 C20.8275862,12.3707586 20.4568276,12 20,12 C19.5431724,12 19.1724138,12.3707586 19.1724138,12.8275862 L19.1724138,19.1724138 L12.8275862,19.1724138 C12.3707586,19.1724138 12,19.5431724 12,20 C12,20.4568276 12.3707586,20.8275862 12.8275862,20.8275862 L19.1724138,20.8275862 L19.1724138,27.1724138 C19.1724138,27.6292414 19.5431724,28 20,28 C20.4568276,28 20.8275862,27.6292414 20.8275862,27.1724138 L20.8275862,20.8275862 L27.1724138,20.8275862 C27.6292414,20.8275862 28,20.4568276 28,20 Z" id="Page-1-Copy-7" fill="#666666"></path>
                </g>
            </g>
        </g>
    </g>
</svg>