<?xml version="1.0" encoding="UTF-8"?>
<svg width="44px" height="35px" viewBox="0 0 44 35" version="1.1" xmlns="http://www.w3.org/2000/svg" xmlns:xlink="http://www.w3.org/1999/xlink">
    <!-- Generator: Sketch 43.1 (39012) - http://www.bohemiancoding.com/sketch -->
    <title>Arrow</title>
    <desc>Created with Sketch.</desc>
    <defs></defs>
    <g id="Symbols" stroke="none" stroke-width="1" fill="none" fill-rule="evenodd">
        <g id="BottomNav" transform="translate(-34.000000, -30.000000)" fill="#555555">
            <g id="Arrow">
                <path d="M53.3180165,61.6102267 C53.3180165,61.0222267 53.1233232,60.3336133 52.6333232,59.8436133 L42.2466298,49.45692 L75.3680165,49.45692 C76.7413232,49.45692 77.8180165,48.3802267 77.8180165,47.00692 C77.8180165,45.6336133 76.7413232,44.55692 75.3680165,44.55692 L42.2414032,44.55692 L52.6280965,34.26692 C53.1180965,33.77692 53.3127898,33.1902267 53.3127898,32.5003067 C53.3127898,31.81692 53.1180965,31.225 52.6280965,30.735 C51.6480965,29.755 50.0814032,29.755 49.1980965,30.735 L34.6927898,45.2403067 C34.5960965,45.337 34.4980965,45.53692 34.3961765,45.6336133 C33.9061765,46.317 33.9061765,47.2003067 34.2027898,47.8902267 C34.2994832,48.1855333 34.4980965,48.47692 34.6927898,48.6755333 L49.1980965,63.3703067 C50.1780965,64.3503067 51.7460965,64.3503067 52.6280965,63.3703067 C53.1180965,62.8803067 53.3180165,62.2936133 53.3180165,61.6102267 Z"></path>
            </g>
        </g>
    </g>
</svg>