<?xml version="1.0" encoding="UTF-8"?>
<svg width="30px" height="32px" viewBox="0 0 30 32" version="1.1" xmlns="http://www.w3.org/2000/svg" xmlns:xlink="http://www.w3.org/1999/xlink">
    <!-- Generator: Sketch 42 (36781) - http://www.bohemiancoding.com/sketch -->
    <title>Page 1</title>
    <desc>Created with Sketch.</desc>
    <defs></defs>
    <g id="Symbols" stroke="none" stroke-width="1" fill="none" fill-rule="evenodd">
        <g id="HeaderHotelBorg2CartItems" transform="translate(-393.000000, -40.000000)" fill="#555555">
            <g id="Header">
                <path d="M415.128668,61.4516258 C419.123904,56.4421372 418.863464,48.8893698 414.308009,44.1871298 C409.452774,39.1776412 401.496662,39.1776412 396.641426,44.1871298 C391.786191,49.1966184 391.786191,57.4055004 396.641426,62.414989 C399.069044,64.9197333 402.243621,66.1518106 405.455048,66.1518106 C408.256145,66.1518106 411.057242,65.1884474 413.372318,63.261721 L420.91561,71.0446681 C421.176548,71.313896 421.47583,71.4300133 421.775609,71.4300133 C422.074891,71.4300133 422.409529,71.313896 422.63511,71.0446681 C423.12163,70.5432054 423.12163,69.7725148 422.63511,69.2345728 L415.128668,61.4516258 Z M398.395785,60.5643041 C394.511597,56.5561994 394.511597,50.0053297 398.395785,45.997225 C400.337381,43.9944572 402.87754,42.9529973 405.455048,42.9529973 C408.032555,42.9529973 410.573212,43.9944572 412.51431,45.997225 C416.398997,50.0053297 416.398997,56.5561994 412.51431,60.5643041 C408.629624,64.6104295 402.280471,64.6104295 398.395785,60.5643041 Z" id="Page-1"></path>
            </g>
        </g>
    </g>
</svg>